<svg width="300" height="300" viewBox="0 0 300 300" fill="none" xmlns="http://www.w3.org/2000/svg">
<path d="M184.616 193.847H164.084L133.727 139.28V193.847H113.077V106.154H133.727L164.025 160.721V106.154H184.616V193.847Z" fill="#FFD100"/>
<path d="M278.598 165.442L279.379 155.404L268.739 154.587L268.984 151.433L293.077 153.283L291.924 168.102L289.31 167.901L290.217 156.237L281.976 155.604L281.196 165.641L278.598 165.442Z" fill="#FFD100"/>
<path d="M279.393 184.266C279.57 183.832 279.717 183.353 279.834 182.827C280.272 180.876 279.731 179.366 278.213 178.299L265.772 175.547L266.439 172.572L283.966 176.449L283.318 179.344L281.282 178.944C282.63 180.266 283.103 181.823 282.702 183.614C282.572 184.193 282.398 184.615 282.18 184.882L279.393 184.266Z" fill="#FFD100"/>
<path d="M272.792 185.934C274.434 186.561 275.789 187.442 276.855 188.578C277.917 189.725 278.584 191.003 278.857 192.413C279.126 193.834 278.978 195.278 278.411 196.744C277.536 199.011 276.039 200.541 273.92 201.333C271.797 202.135 269.424 202.036 266.8 201.035L266.599 200.959C264.967 200.336 263.621 199.464 262.561 198.342C261.508 197.234 260.844 195.963 260.568 194.528C260.289 193.103 260.438 191.642 261.017 190.145C261.888 187.888 263.385 186.359 265.508 185.557C267.627 184.764 269.988 184.865 272.591 185.857L272.792 185.934ZM271.346 188.666C269.487 187.957 267.83 187.813 266.376 188.235C264.917 188.667 263.911 189.601 263.356 191.037C262.797 192.483 262.922 193.849 263.729 195.133C264.547 196.422 265.983 197.458 268.039 198.242C269.877 198.944 271.533 199.075 273.006 198.636C274.485 198.212 275.502 197.282 276.056 195.846C276.599 194.441 276.474 193.093 275.681 191.802C274.888 190.511 273.443 189.466 271.346 188.666Z" fill="#FFD100"/>
<path d="M269.45 215.326L267.461 214.263C268.241 216.311 268.066 218.28 266.934 220.167C264.993 223.405 262.176 223.95 258.481 221.801L248.289 215.767L249.859 213.147L260.066 219.19C261.183 219.838 262.158 220.07 262.99 219.885C263.816 219.709 264.544 219.097 265.172 218.05C265.681 217.2 265.9 216.319 265.828 215.407C265.757 214.495 265.458 213.641 264.932 212.843L253.942 206.337L255.512 203.717L270.935 212.848L269.45 215.326Z" fill="#FFD100"/>
<path d="M259.886 237.056L256.477 234.377L254.399 236.988L252.538 235.526L254.616 232.914L245.884 226.053C245.32 225.61 244.802 225.392 244.33 225.4C243.868 225.414 243.413 225.702 242.968 226.262C242.748 226.538 242.498 226.958 242.218 227.523L240.266 225.989C240.593 225.223 240.994 224.543 241.467 223.948C242.317 222.879 243.284 222.329 244.367 222.297C245.449 222.265 246.589 222.72 247.787 223.661L256.519 230.522L258.546 227.975L260.406 229.437L258.38 231.984L261.79 234.664L259.886 237.056Z" fill="#FFD100"/>
<path d="M227.226 253.288L235.342 246.718L229.936 240.123L220.508 247.756L218.863 245.749L230.761 236.117L246.014 254.725L234.245 264.253L232.59 262.234L241.889 254.705L236.987 248.724L228.87 255.295L227.226 253.288Z" fill="#FFD100"/>
<path d="M220.025 266.123L218.828 264.221C218.484 266.384 217.349 268.007 215.424 269.091C212.122 270.948 209.403 270.035 207.266 266.351L201.424 256.096L204.095 254.593L209.945 264.862C210.592 265.976 211.323 266.657 212.139 266.905C212.944 267.159 213.881 266.985 214.95 266.384C215.816 265.896 216.446 265.239 216.839 264.412C217.232 263.585 217.399 262.695 217.34 261.744L211.041 250.686L213.712 249.183L222.552 264.701L220.025 266.123Z" fill="#FFD100"/>
<path d="M200.811 266.385C201.759 268.954 201.907 271.24 201.256 273.244C200.609 275.259 199.293 276.627 197.309 277.35C195.336 278.069 193.525 277.969 191.878 277.048L195.097 285.774L192.215 286.824L183.446 263.06L186.095 262.094L186.897 263.838C187.533 262.015 188.879 260.729 190.935 259.979C192.888 259.268 194.776 259.481 196.598 260.619C198.409 261.761 199.787 263.611 200.731 266.169L200.811 266.385ZM197.809 267.111C197.108 265.213 196.166 263.872 194.981 263.087C193.795 262.301 192.507 262.163 191.115 262.67C189.287 263.336 188.253 264.637 188.013 266.573L190.85 274.263C192.294 275.527 193.91 275.833 195.696 275.182C197.109 274.668 198.01 273.725 198.4 272.354C198.79 270.983 198.593 269.236 197.809 267.111Z" fill="#FFD100"/>
<path d="M171.155 275.253C171.462 277.971 171.06 280.227 169.949 282.02C168.839 283.824 167.234 284.843 165.133 285.077C163.044 285.31 161.309 284.785 159.929 283.502L160.972 292.738L157.921 293.078L155.08 267.927L157.883 267.614L158.246 269.497C159.299 267.876 160.914 266.944 163.091 266.701C165.158 266.471 166.941 267.123 168.439 268.658C169.927 270.195 170.823 272.316 171.129 275.024L171.155 275.253ZM168.065 275.249C167.838 273.241 167.243 271.715 166.279 270.673C165.315 269.631 164.096 269.192 162.623 269.357C160.688 269.573 159.372 270.593 158.677 272.417L159.596 280.555C160.697 282.123 162.193 282.802 164.084 282.591C165.58 282.424 166.681 281.721 167.387 280.482C168.093 279.242 168.319 277.498 168.065 275.249Z" fill="#FFD100"/>
<path d="M140.458 267.26C142.889 267.381 144.827 268.269 146.272 269.925C147.717 271.592 148.372 273.753 148.238 276.408L148.21 276.968C148.121 278.734 147.704 280.292 146.96 281.64C146.205 282.999 145.199 284.038 143.945 284.756C142.678 285.485 141.332 285.814 139.906 285.743C137.575 285.626 135.801 284.774 134.585 283.184C133.369 281.595 132.833 279.379 132.977 276.538L133.041 275.27L145.191 275.877C145.235 274.119 144.793 272.673 143.865 271.538C142.924 270.413 141.692 269.812 140.167 269.736C139.084 269.682 138.156 269.856 137.382 270.257C136.608 270.659 135.921 271.207 135.321 271.903L133.521 270.362C135.14 268.144 137.452 267.11 140.458 267.26ZM140.033 283.241C141.27 283.303 142.332 282.905 143.217 282.047C144.102 281.201 144.685 279.976 144.965 278.373L135.981 277.925L135.969 278.155C135.979 279.707 136.339 280.923 137.048 281.806C137.756 282.699 138.751 283.177 140.033 283.241Z" fill="#FFD100"/>
<path d="M123.829 269.479L116.733 282.022L113.659 281.403L123.533 265.2L125.827 265.662L128.64 284.42L125.566 283.801L123.829 269.479Z" fill="#FFD100"/>
<path d="M105.574 259.521C107.859 260.354 109.445 261.774 110.33 263.782C111.211 265.799 111.192 268.056 110.271 270.553L110.077 271.079C109.464 272.739 108.601 274.104 107.488 275.173C106.361 276.248 105.09 276.944 103.678 277.26C102.251 277.582 100.867 277.499 99.5274 277.011C97.3358 276.212 95.8969 274.875 95.2106 272.998C94.5243 271.122 94.674 268.847 95.6597 266.176L96.0993 264.985L107.52 269.146C108.087 267.481 108.097 265.969 107.549 264.611C106.987 263.26 105.99 262.323 104.556 261.8C103.538 261.429 102.6 261.322 101.742 261.477C100.883 261.632 100.063 261.953 99.2825 262.441L98.0243 260.438C100.232 258.797 102.749 258.491 105.574 259.521ZM100.395 274.659C101.558 275.083 102.691 275.016 103.792 274.458C104.89 273.91 105.812 272.912 106.558 271.464L98.1139 268.387L98.034 268.603C97.5805 270.088 97.5604 271.356 97.9736 272.408C98.3831 273.47 99.1903 274.22 100.395 274.659Z" fill="#FFD100"/>
<path d="M92.8841 254.112L95.6199 255.496L84.0654 278.056L81.3297 276.672L92.8841 254.112Z" fill="#FFD100"/>
<path d="M83.4884 259.673C82.4909 261.112 81.3114 262.212 79.95 262.975C78.5795 263.731 77.1723 264.075 75.7284 264.007C74.2754 263.933 72.8977 263.45 71.5952 262.558C69.5823 261.18 68.4364 259.375 68.1575 257.142C67.8695 254.903 68.5222 252.635 70.1156 250.336L70.2379 250.16C71.2291 248.73 72.3977 247.636 73.7438 246.876C75.0744 246.119 76.4739 245.776 77.9423 245.848C79.4015 245.913 80.7961 246.401 82.1259 247.311C84.1297 248.683 85.2756 250.489 85.5636 252.727C85.8425 254.96 85.1915 257.216 83.6107 259.497L83.4884 259.673ZM81.1542 257.634C82.2834 256.006 82.8119 254.439 82.7397 252.935C82.6584 251.425 81.9801 250.234 80.705 249.361C79.4207 248.481 78.0556 248.28 76.6095 248.758C75.1572 249.245 73.8068 250.388 72.5584 252.189C71.4418 253.8 70.9255 255.368 71.0097 256.893C71.0784 258.422 71.7504 259.622 73.0255 260.495C74.2734 261.35 75.6217 261.546 77.0706 261.083C78.5195 260.621 79.8807 259.471 81.1542 257.634Z" fill="#FFD100"/>
<path d="M53.3482 234.763C55.2514 232.816 57.2329 231.68 59.2928 231.355C61.3527 231.03 63.1482 231.606 64.6792 233.084C66.2419 234.592 66.9899 236.272 66.9232 238.123L72.9448 231.962L75.1462 234.087L57.8325 251.801L55.8215 249.86L57.1014 248.337C55.1263 248.576 53.3415 247.925 51.747 246.386C50.2001 244.893 49.5448 243.134 49.781 241.11C50.0094 239.078 51.1329 237.029 53.1517 234.964L53.3482 234.763ZM55.3068 237.136C53.8968 238.579 53.0927 240.017 52.8947 241.45C52.6967 242.883 53.1372 244.12 54.216 245.161C55.5487 246.448 57.1223 246.825 58.9367 246.294L64.9121 240.18C65.3941 238.378 64.9568 236.822 63.6003 235.513C62.5452 234.494 61.3038 234.1 59.876 234.331C58.4326 234.561 56.9095 235.497 55.3068 237.136Z" fill="#FFD100"/>
<path d="M51.5602 217.806C53.0126 219.745 53.5555 221.796 53.189 223.957C52.8135 226.125 51.5522 228.003 49.405 229.592L48.9525 229.926C47.5241 230.983 46.0495 231.656 44.5288 231.945C42.9927 232.232 41.5465 232.124 40.1903 231.62C38.8187 231.114 37.707 230.293 36.8554 229.155C35.4624 227.295 34.9963 225.394 35.4571 223.45C35.918 221.506 37.2974 219.685 39.5954 217.985L40.6202 217.227L47.8791 226.919C49.2723 225.834 50.1143 224.574 50.4051 223.14C50.6804 221.703 50.3626 220.377 49.4515 219.16C48.8045 218.296 48.0791 217.696 47.2752 217.359C46.4714 217.022 45.6083 216.845 44.686 216.829L44.7382 214.469C47.4904 214.296 49.7644 215.408 51.5602 217.806ZM38.8783 227.659C39.6177 228.646 40.6021 229.206 41.8314 229.338C43.0518 229.476 44.3736 229.142 45.7967 228.336L40.4293 221.169L40.243 221.307C39.0448 222.303 38.3285 223.353 38.0943 224.458C37.8511 225.57 38.1125 226.637 38.8783 227.659Z" fill="#FFD100"/>
<path d="M27.0298 207.176C27.1847 207.618 27.392 208.075 27.652 208.548C28.6174 210.302 30.0246 211.084 31.8738 210.893L43.0546 204.817L44.5266 207.492L28.7744 216.052L27.3422 213.45L29.1382 212.417C27.2481 212.305 25.8602 211.444 24.9744 209.834C24.688 209.313 24.5384 208.881 24.5258 208.537L27.0298 207.176Z" fill="#FFD100"/>
<path d="M18.6624 136.334L18.2316 146.392L28.8937 146.841L28.7583 150.002L4.61523 148.985L5.25119 134.136L7.87111 134.246L7.37052 145.935L15.6282 146.282L16.059 136.224L18.6624 136.334Z" fill="#FFD100"/>
<path d="M17.2274 117.409C17.066 117.848 16.9356 118.333 16.8362 118.862C16.4668 120.827 17.0591 122.317 18.6129 123.332L31.1421 125.658L30.5789 128.654L12.9271 125.378L13.4751 122.462L15.5235 122.792C14.1312 121.517 13.6044 119.977 13.9434 118.174C14.053 117.591 14.2123 117.162 14.4214 116.888L17.2274 117.409Z" fill="#FFD100"/>
<path d="M23.6877 115.721C22.0251 115.151 20.6416 114.315 19.5375 113.215C18.4369 112.105 17.7262 110.85 17.4054 109.45C17.0881 108.039 17.1877 106.591 17.7039 105.106C18.5017 102.812 19.946 101.233 22.0368 100.37C24.1313 99.4967 26.5065 99.5161 29.1625 100.428L29.3664 100.498C31.0186 101.065 32.3933 101.892 33.4907 102.978C34.5812 104.049 35.2885 105.298 35.6125 106.722C35.9402 108.137 35.8405 109.602 35.3134 111.118C34.5192 113.402 33.0749 114.981 30.9805 115.854C28.8897 116.717 26.5267 116.696 23.8916 115.791L23.6877 115.721ZM25.0399 112.943C26.9221 113.589 28.5829 113.677 30.0224 113.207C31.4654 112.726 32.4396 111.758 32.945 110.305C33.454 108.841 33.2832 107.48 32.4325 106.223C31.5715 104.963 30.1005 103.975 28.0196 103.261C26.1583 102.622 24.4991 102.546 23.042 103.034C21.5781 103.508 20.5934 104.471 20.088 105.925C19.5935 107.348 19.7645 108.691 20.601 109.954C21.4376 111.218 22.9172 112.214 25.0399 112.943Z" fill="#FFD100"/>
<path d="M25.9625 86.2457L27.9865 87.2424C27.1377 85.2211 27.2473 83.2483 28.3153 81.3242C30.147 78.0243 32.9451 77.3874 36.7095 79.4135L47.0977 85.1084L45.6158 87.7781L35.2131 82.0753C34.0745 81.4636 33.0925 81.2641 32.2671 81.4766C31.447 81.6795 30.7405 82.3149 30.1478 83.3828C29.6671 84.2487 29.4777 85.1362 29.5795 86.0452C29.6813 86.9543 30.0085 87.7987 30.5611 88.5785L41.7628 94.7194L40.2809 97.3891L24.5607 88.7711L25.9625 86.2457Z" fill="#FFD100"/>
<path d="M34.9171 63.9645L38.4135 66.5311L40.4041 63.8529L42.3124 65.2538L40.3218 67.9319L49.2763 74.5051C49.8546 74.9296 50.3792 75.1303 50.8502 75.1072C51.3123 75.0775 51.7568 74.7754 52.1838 74.2009C52.3941 73.918 52.6298 73.49 52.8909 72.9166L54.8926 74.386C54.591 75.1619 54.2135 75.8547 53.7602 76.4646C52.9456 77.5606 51.9977 78.1422 50.9166 78.2092C49.8355 78.2763 48.681 77.8592 47.4533 76.9579L38.4988 70.3847L36.5575 72.9966L34.6491 71.5958L36.5904 68.9839L33.0941 66.4173L34.9171 63.9645Z" fill="#FFD100"/>
<path d="M66.8945 46.7478L58.9995 53.5787L64.6195 59.994L73.7908 52.0588L75.5008 54.0107L63.9272 64.0244L48.069 45.9225L59.5175 36.017L61.2383 37.9814L52.1922 45.8083L57.2895 51.6268L65.1845 44.7958L66.8945 46.7478Z" fill="#FFD100"/>
<path d="M73.3302 33.8309L74.5908 35.6923C74.8623 33.5189 75.9421 31.8593 77.8301 30.7133C81.068 28.748 83.8162 29.5712 86.0748 33.1829L92.2556 43.2399L89.636 44.8299L83.4466 34.7589C82.7629 33.6675 82.0095 33.0111 81.1865 32.7896C80.3729 32.5625 79.4421 32.7669 78.3943 33.4029C77.5447 33.9186 76.9373 34.5963 76.572 35.436C76.2067 36.2758 76.0694 37.1702 76.1602 38.1194L82.8251 48.964L80.2055 50.554L70.8522 35.335L73.3302 33.8309Z" fill="#FFD100"/>
<path d="M92.1528 33.0138C91.109 30.4826 90.8745 28.2034 91.4494 26.1764C92.0202 24.1393 93.2831 22.7226 95.2383 21.9263C97.1833 21.1341 98.9964 21.1675 100.678 22.0263L97.1311 13.426L99.9718 12.2691L109.63 35.6912L107.02 36.7543L106.152 35.0417C105.586 36.887 104.29 38.2224 102.263 39.0479C100.338 39.8317 98.4443 39.6888 96.5805 38.6194C94.727 37.5458 93.2805 35.7485 92.2408 33.2273L92.1528 33.0138ZM95.1255 32.1772C95.8968 34.0477 96.8895 35.3531 98.1035 36.0935C99.3174 36.8339 100.61 36.9248 101.982 36.3662C103.784 35.6324 104.768 34.2936 104.935 32.3497L101.809 24.7711C100.318 23.5617 98.6926 23.3156 96.9319 24.0327C95.5397 24.5996 94.6747 25.5753 94.3369 26.9595C93.9991 28.3438 94.2619 30.083 95.1255 32.1772Z" fill="#FFD100"/>
<path d="M121.649 22.8845C121.248 20.1784 121.571 17.9103 122.619 16.0801C123.666 14.239 125.235 13.1654 127.325 12.8591C129.405 12.5544 131.157 13.0195 132.582 14.2543L131.218 5.06032L134.256 4.61536L137.969 29.6543L135.178 30.0632L134.75 28.1938C133.754 29.8498 132.173 30.8366 130.005 31.154C127.948 31.4555 126.143 30.8648 124.592 29.382C123.053 27.8976 122.083 25.8079 121.683 23.1127L121.649 22.8845ZM124.737 22.7818C125.034 24.7815 125.682 26.2855 126.682 27.2938C127.681 28.3022 128.914 28.699 130.381 28.4841C132.308 28.2019 133.587 27.1373 134.219 25.2903L133.017 17.1885C131.862 15.6589 130.343 15.032 128.46 15.3078C126.972 15.5258 125.896 16.2664 125.233 17.5293C124.571 18.7923 124.405 20.5431 124.737 22.7818Z" fill="#FFD100"/>
<path d="M152.445 29.7309C150.011 29.6935 148.043 28.8723 146.541 27.2672C145.039 25.6512 144.308 23.5141 144.35 20.8561L144.358 20.296C144.386 18.5276 144.748 16.9567 145.444 15.5831C146.151 14.1988 147.12 13.126 148.349 12.3649C149.589 11.5929 150.923 11.2179 152.35 11.2399C154.684 11.2757 156.487 12.0669 157.757 13.6135C159.028 15.1601 159.641 17.3558 159.597 20.2005L159.578 21.4691L147.414 21.2822C147.431 23.0403 147.923 24.4705 148.891 25.573C149.87 26.6647 151.123 27.2223 152.649 27.2457C153.733 27.2624 154.655 27.0568 155.414 26.629C156.173 26.2012 156.841 25.6292 157.416 24.913L159.269 26.3916C157.729 28.664 155.454 29.7771 152.445 29.7309ZM152.311 13.7441C151.072 13.7251 150.025 14.1594 149.17 15.0471C148.316 15.9239 147.776 17.168 147.552 18.7795L156.546 18.9177L156.55 18.687C156.486 17.137 156.084 15.9333 155.345 15.0761C154.606 14.2078 153.594 13.7638 152.311 13.7441Z" fill="#FFD100"/>
<path d="M169.259 26.88L175.913 14.1029L179.007 14.617L169.703 31.1472L167.395 30.7637L163.931 12.1118L167.025 12.6259L169.259 26.88Z" fill="#FFD100"/>
<path d="M188.132 36.2192C185.82 35.4639 184.187 34.0978 183.234 32.1212C182.284 30.1341 182.227 27.8777 183.062 25.3521L183.238 24.8198C183.794 23.1396 184.61 21.7467 185.686 20.6411C186.776 19.5285 188.022 18.7906 189.423 18.4273C190.838 18.057 192.223 18.0933 193.579 18.5362C195.797 19.2606 197.281 20.549 198.03 22.4014C198.78 24.2538 198.708 26.5315 197.814 29.2345L197.415 30.4399L185.859 26.6649C185.349 28.3485 185.391 29.8597 185.985 31.1985C186.592 32.5302 187.621 33.433 189.072 33.9068C190.102 34.2433 191.043 34.3196 191.896 34.1356C192.748 33.9516 193.557 33.6027 194.321 33.089L195.646 35.0486C193.496 36.7629 190.991 37.1531 188.132 36.2192ZM192.792 20.9157C191.615 20.5311 190.486 20.6363 189.404 21.2312C188.325 21.8156 187.438 22.844 186.741 24.3163L195.286 27.1077L195.358 26.8885C195.761 25.3895 195.738 24.1214 195.289 23.0844C194.844 22.0369 194.011 21.314 192.792 20.9157Z" fill="#FFD100"/>
<path d="M200.818 41.075L198.038 39.7827L208.827 16.8524L211.608 18.1447L200.818 41.075Z" fill="#FFD100"/>
<path d="M209.825 35.0324C210.769 33.5584 211.907 32.4157 213.239 31.6042C214.581 30.7986 215.975 30.4035 217.42 30.4188C218.875 30.4401 220.269 30.8726 221.604 31.7165C223.666 33.0206 224.878 34.7831 225.239 37.0041C225.61 39.2309 225.041 41.5217 223.534 43.8764L223.418 44.0572C222.48 45.5219 221.353 46.6583 220.035 47.4665C218.734 48.2712 217.348 48.6646 215.878 48.6468C214.417 48.6348 213.005 48.198 211.643 47.3365C209.59 46.0382 208.378 44.2757 208.008 42.0489C207.646 39.8279 208.214 37.5494 209.709 35.2132L209.825 35.0324ZM212.233 36.9847C211.165 38.6534 210.694 40.2379 210.822 41.7382C210.959 43.2444 211.681 44.4105 212.987 45.2367C214.303 46.0687 215.675 46.2198 217.102 45.6898C218.536 45.1506 219.843 43.9585 221.024 42.1137C222.081 40.4635 222.539 38.8778 222.398 37.3564C222.273 35.8317 221.557 34.6563 220.251 33.8301C218.972 33.0217 217.618 32.8749 216.187 33.3897C214.756 33.9045 213.438 35.1028 212.233 36.9847Z" fill="#FFD100"/>
<path d="M241.316 59.1979C239.478 61.2058 237.535 62.4056 235.487 62.7974C233.439 63.1892 231.625 62.6713 230.046 61.2439C228.435 59.7869 227.632 58.1324 227.638 56.2805L221.822 62.6335L219.552 60.5811L236.273 42.3147L238.347 44.1896L237.118 45.7527C239.084 45.4504 240.889 46.0425 242.533 47.5291C244.129 48.9713 244.842 50.7078 244.672 52.7386C244.511 54.7767 243.455 56.8607 241.506 58.9906L241.316 59.1979ZM239.28 56.8894C240.642 55.4018 241.398 53.9386 241.549 52.5C241.7 51.0615 241.219 49.8392 240.106 48.8334C238.732 47.5908 237.147 47.2646 235.351 47.8546L229.58 54.1588C229.157 55.9758 229.646 57.5166 231.045 58.7814C232.133 59.765 233.386 60.1185 234.806 59.8419C236.241 59.5644 237.732 58.5803 239.28 56.8894Z" fill="#FFD100"/>
<path d="M243.356 75.6274C241.833 73.742 241.216 71.7126 241.503 69.5392C241.798 67.3589 242.99 65.4363 245.077 63.7714L245.517 63.4206C246.906 62.3129 248.355 61.5871 249.864 61.243C251.388 60.9006 252.837 60.9566 254.211 61.4108C255.6 61.8668 256.742 62.6476 257.634 63.7531C259.095 65.5615 259.63 67.4451 259.241 69.4041C258.852 71.3631 257.54 73.2336 255.306 75.0154L254.31 75.8101L246.7 66.387C245.348 67.5221 244.553 68.8115 244.315 70.2554C244.092 71.7009 244.459 73.015 245.414 74.1977C246.092 75.0376 246.839 75.6114 247.655 75.919C248.47 76.2265 249.339 76.3718 250.262 76.3549L250.296 78.7157C247.552 78.988 245.239 77.9586 243.356 75.6274ZM255.668 65.3217C254.893 64.3618 253.888 63.8383 252.655 63.7511C251.43 63.657 250.122 64.0385 248.729 64.8956L254.356 71.8632L254.537 71.7187C255.698 70.6801 256.375 69.6046 256.569 68.492C256.771 67.3726 256.471 66.3159 255.668 65.3217Z" fill="#FFD100"/>
<path d="M268.651 85.9551C268.481 85.5186 268.259 85.0686 267.983 84.6051C266.96 82.8833 265.527 82.1483 263.685 82.4L252.714 88.8412L251.153 86.216L266.611 77.1413L268.129 79.6956L266.368 80.7865C268.261 80.8367 269.677 81.6517 270.616 83.2315C270.92 83.7424 271.084 84.1694 271.108 84.5126L268.651 85.9551Z" fill="#FFD100"/>
<path d="M28.8545 179.73C28.8545 182.594 26.518 184.916 23.6358 184.916C20.7536 184.916 18.4171 182.594 18.4171 179.73C18.4171 176.866 20.7536 174.544 23.6358 174.544C26.518 174.544 28.8545 176.866 28.8545 179.73Z" fill="#FFD100"/>
<path d="M279.351 114.901C279.351 117.765 277.014 120.087 274.132 120.087C271.25 120.087 268.914 117.765 268.914 114.901C268.914 112.037 271.25 109.715 274.132 109.715C277.014 109.715 279.351 112.037 279.351 114.901Z" fill="#FFD100"/>
</svg>
