<svg width="50" height="50" viewBox="0 0 50 50" fill="none" xmlns="http://www.w3.org/2000/svg">
<rect width="50" height="50" rx="5" fill="#202020"/>
<g clip-path="url(#clip0)">
<path d="M25 37C25 37 34 28.471 34 22C34 19.6131 33.0518 17.3239 31.364 15.636C29.6761 13.9482 27.3869 13 25 13C22.6131 13 20.3239 13.9482 18.636 15.636C16.9482 17.3239 16 19.6131 16 22C16 28.471 25 37 25 37ZM25 26.5C23.8065 26.5 22.6619 26.0259 21.818 25.182C20.9741 24.3381 20.5 23.1935 20.5 22C20.5 20.8065 20.9741 19.6619 21.818 18.818C22.6619 17.9741 23.8065 17.5 25 17.5C26.1935 17.5 27.3381 17.9741 28.182 18.818C29.0259 19.6619 29.5 20.8065 29.5 22C29.5 23.1935 29.0259 24.3381 28.182 25.182C27.3381 26.0259 26.1935 26.5 25 26.5Z" fill="#FFFDEB"/>
</g>
<defs>
<clipPath id="clip0">
<rect width="24" height="24" fill="white" transform="translate(13 13)"/>
</clipPath>
</defs>
</svg>
