<svg width="50" height="50" viewBox="0 0 50 50" fill="none" xmlns="http://www.w3.org/2000/svg">
<rect width="50" height="50" rx="5" fill="#202020"/>
<path d="M25.0325 12.5C18.9162 12.4992 13.7023 16.935 12.723 22.9724C11.7437 29.0098 15.2883 34.8662 21.0913 36.7987C21.7163 36.9112 21.94 36.5275 21.94 36.1975C21.94 35.9013 21.93 35.1162 21.9263 34.0725C18.4575 34.8225 17.725 32.4 17.725 32.4C17.4967 31.6462 17.0057 30.9992 16.3413 30.5763C15.2163 29.8025 16.4275 29.82 16.4275 29.82C17.2284 29.9298 17.9332 30.4043 18.3363 31.105C18.6774 31.7253 19.2522 32.1837 19.9329 32.3783C20.6136 32.5729 21.3438 32.4875 21.9613 32.1413C22.0193 31.5088 22.3007 30.9176 22.755 30.4738C19.9875 30.16 17.0775 29.09 17.0775 24.3113C17.0622 23.0752 17.5211 21.8804 18.36 20.9725C17.9805 19.8966 18.0252 18.7166 18.485 17.6725C18.485 17.6725 19.5313 17.3363 21.9125 18.9488C23.9548 18.3888 26.1102 18.3888 28.1525 18.9488C30.535 17.335 31.58 17.6725 31.58 17.6725C32.042 18.7161 32.0867 19.897 31.705 20.9725C32.547 21.8803 33.0056 23.0783 32.985 24.3163C32.985 29.1075 30.0725 30.16 27.295 30.4688C27.8942 31.0813 28.2015 31.9217 28.1388 32.7763C28.1388 34.4438 28.1238 35.7887 28.1238 36.1975C28.1238 36.5312 28.3463 36.9188 28.9825 36.7962C34.7831 34.8604 38.3238 29.0037 37.3425 22.9679C36.3613 16.9321 31.1476 12.4986 25.0325 12.5Z" fill="#FFFDEB"/>
</svg>
