<svg width="50" height="50" viewBox="0 0 50 50" fill="none" xmlns="http://www.w3.org/2000/svg">
<rect width="50" height="50" rx="5" fill="#202020"/>
<path d="M26.25 36.25H21.25V21.25H26.25V23.75C27.3158 22.3941 28.932 21.5857 30.6562 21.5462C33.757 21.5635 36.259 24.0867 36.25 27.1875V36.25H31.25V27.8125C31.05 26.4158 29.8522 25.3795 28.4412 25.3825C27.8241 25.402 27.2416 25.6722 26.828 26.1308C26.4145 26.5893 26.2058 27.1966 26.25 27.8125V36.25ZM18.75 36.25H13.75V21.25H18.75V36.25ZM16.25 18.75C14.8693 18.75 13.75 17.6307 13.75 16.25C13.75 14.8693 14.8693 13.75 16.25 13.75C17.6307 13.75 18.75 14.8693 18.75 16.25C18.75 16.913 18.4866 17.5489 18.0178 18.0178C17.5489 18.4866 16.913 18.75 16.25 18.75Z" fill="#FFFDEB"/>
</svg>
