<svg width="50" height="50" viewBox="0 0 50 50" fill="none" xmlns="http://www.w3.org/2000/svg">
<rect width="50" height="50" rx="5" fill="#202020"/>
<path d="M33.7469 35C23.0823 35.0151 14.9886 26.8244 15 16.2531C15 15.5628 15.5597 15 16.25 15H19.5492C20.1687 15 20.6949 15.4552 20.7859 16.0679C21.0039 17.5365 21.4315 18.9662 22.0556 20.3134L22.1841 20.5906C22.3627 20.9761 22.2416 21.4342 21.8958 21.6811C20.8741 22.4107 20.4837 23.8794 21.2796 25.0254C22.2785 26.4636 23.5376 27.7224 24.9753 28.7208C26.1213 29.5165 27.5898 29.1261 28.3194 28.1046C28.5665 27.7586 29.0248 27.6375 29.4105 27.8162L29.6865 27.944C31.0337 28.5681 32.4636 28.9957 33.9323 29.2137C34.5451 29.3046 35 29.8308 35 30.4503V33.75C35 34.4403 34.439 35 33.7486 35L33.7469 35Z" fill="#FFFDEB"/>
</svg>
