<svg width="50" height="50" viewBox="0 0 50 50" fill="none" xmlns="http://www.w3.org/2000/svg">
<rect width="50" height="50" rx="5" fill="#202020"/>
<g clip-path="url(#clip0)">
<path d="M36.309 27.5474C38.047 19.7374 31.205 12.6424 23.17 14.0044C18.808 11.2974 13 14.3564 13 19.5464C13 20.7534 13.333 21.8834 13.912 22.8574C12.297 30.6854 19.195 37.6784 27.223 36.2234C32.898 39.2244 39.169 33.2394 36.309 27.5474ZM28.671 32.2574C26.563 33.1244 23.094 33.1294 20.995 32.0304C18.002 30.4344 17.47 26.8414 20.052 26.8414C21.998 26.8414 21.382 29.1104 23.347 30.0354C24.249 30.4524 26.188 30.4954 27.315 29.7354C28.428 28.9904 28.326 27.8184 27.721 27.2584C26.118 25.7784 21.531 26.3664 19.434 23.7754C18.523 22.6514 18.351 20.6684 19.471 19.2304C21.423 16.7184 27.151 16.5654 29.614 18.4624C31.888 20.2224 31.274 22.5584 29.439 22.5584C27.232 22.5584 28.392 19.6704 24.829 19.6704C22.246 19.6704 21.23 21.5074 23.049 22.4014C25.515 23.6264 31.799 23.2174 31.799 28.0044C31.794 29.9964 30.573 31.4814 28.671 32.2574Z" fill="#FFFDEB"/>
</g>
<defs>
<clipPath id="clip0">
<rect width="24" height="24" fill="white" transform="translate(13 13)"/>
</clipPath>
</defs>
</svg>
