<svg width="50" height="50" viewBox="0 0 50 50" fill="none" xmlns="http://www.w3.org/2000/svg">
<rect width="50" height="50" rx="5" fill="#202020"/>
<g clip-path="url(#clip0)">
<path d="M36.7862 30.3671C36.7217 30.2591 36.3227 29.392 34.4025 27.6099C32.3924 25.7438 32.6624 26.0468 35.0836 22.82C36.5582 20.8549 37.1477 19.6548 36.9632 19.1418C36.7877 18.6527 35.7031 18.7817 35.7031 18.7817L32.0969 18.8028C32.0969 18.8028 31.8298 18.7667 31.6303 18.8853C31.4368 19.0023 31.3123 19.2723 31.3123 19.2723C31.3123 19.2723 30.7408 20.7934 29.9787 22.0865C28.3721 24.8152 27.7285 24.9592 27.466 24.7897C26.8555 24.3952 27.0085 23.2026 27.0085 22.3565C27.0085 19.7118 27.409 18.6092 26.2269 18.3242C25.8339 18.2297 25.5459 18.1667 24.5423 18.1562C23.2552 18.1427 22.1646 18.1607 21.5481 18.4622C21.1371 18.6632 20.8205 19.1118 21.014 19.1373C21.2526 19.1688 21.7926 19.2828 22.0791 19.6728C22.4497 20.1754 22.4362 21.3064 22.4362 21.3064C22.4362 21.3064 22.6492 24.4192 21.9396 24.8062C21.4521 25.0717 20.7845 24.5302 19.3519 22.0535C18.6184 20.7859 18.0633 19.3833 18.0633 19.3833C18.0633 19.3833 17.9568 19.1223 17.7663 18.9828C17.5353 18.8133 17.2113 18.7592 17.2113 18.7592L13.782 18.7802C13.782 18.7802 13.2675 18.7953 13.0785 19.0188C12.9105 19.2183 13.065 19.6293 13.065 19.6293C13.065 19.6293 15.7502 25.9103 18.7894 29.077C21.5781 31.9797 24.7433 31.7892 24.7433 31.7892H26.1774C26.1774 31.7892 26.611 31.7412 26.8315 31.5027C27.0355 31.2837 27.028 30.8726 27.028 30.8726C27.028 30.8726 26.9995 28.948 27.8936 28.6645C28.7741 28.3855 29.9052 30.5246 31.1038 31.3482C32.0099 31.9707 32.6984 31.8342 32.6984 31.8342L35.9041 31.7892C35.9041 31.7892 37.5813 31.6857 36.7862 30.3671Z" fill="#FFFDEB"/>
</g>
<defs>
<clipPath id="clip0">
<rect width="24" height="24" fill="white" transform="translate(13 13)"/>
</clipPath>
</defs>
</svg>
